<svg xmlns="http://www.w3.org/2000/svg" viewBox="0.023771682754158974 -0.02077643573284149 104.85704040527344 103.3497543334961"><title>资源 194</title><path d="M55.7 74.64H32.49a4.86 4.86 0 0 0-3.62 1.86L3.79 101.54c-.79.79-1.47 2.17-2.81 1.69s-.88-2-.88-3.09c0-7.49 0-15-.06-22.49a7.46 7.46 0 0 1 2.33-5.78Q19 55.43 35.42 38.86c2.13-2.13 2.58-2.07 4.32.47 2.74 4 5.53 7.91 8.16 12 1.29 2 2.22 2 3.91.31 9.34-9.53 18.8-18.92 28.19-28.33 3.71-3.71 7.44-7.39 11.13-11.12 1.39-1.39 2.59-1.53 4 .06 7.13 8.17 10.61 17.54 9.57 28.46-1.3 13.8-8.35 23.76-20.4 30.29A27.1 27.1 0 0 1 71 74.6c-5.08-.06-10.16 0-15.25 0z" fill="#0B5394"></path><path d="M36.48 0c9.42 0 18.84.11 28.25 0A42.83 42.83 0 0 1 83 3.47c2.16.95 2.46 1.71.8 3.39Q72.16 18.58 60.49 30.22c-2.64 2.65-5.36 5.22-7.94 7.94-1.34 1.41-2.18 1-3.13-.35-3-4.3-6.09-8.54-9-12.88-1.14-1.68-1.91-1.83-3.41-.31q-16.87 17-33.87 33.93c-.51.51-.94 1.33-1.81 1.1s-.67-1.22-.87-1.9c-.75-2.5.13-5 .12-7.46C.48 34.88.51 19.46.51 4.05c0-3.69.31-4 4-4Q20.48 0 36.48 0z" fill="#6FA8DC"></path></svg>